<svg height="496pt" viewBox="-64 0 496 496" width="496pt" xmlns="http://www.w3.org/2000/svg" xmlns:xlink="http://www.w3.org/1999/xlink"><linearGradient id="a" gradientUnits="userSpaceOnUse" x1="184" x2="184" y1="496" y2="0"><stop offset="0" stop-color="#9f2fff"/><stop offset="1" stop-color="#0bb1d3"/></linearGradient><path d="m75.167969 357.710938c10.214843 34.210937 26.910156 65.570312 49.640625 93.210937l-12.359375 10.15625c-24.082031-29.292969-41.785157-62.527344-52.609375-98.789063zm-7.28125-31.070313-15.765625 2.71875c.949218 5.527344 2.0625 11.023437 3.335937 16.464844l15.574219-3.640625c-1.199219-5.144532-2.246094-10.328125-3.144531-15.542969zm204.113281-142.640625c0-13.230469 10.769531-24 24-24s24 10.769531 24 24-10.769531 24-24 24-24-10.769531-24-24zm16 0c0 4.40625 3.59375 8 8 8s8-3.59375 8-8-3.59375-8-8-8-8 3.59375-8 8zm-184-120c0 8.351562-2.59375 16.105469-6.984375 22.527344l58.398437 74.328125c10.296876-.527344 21.9375-.824219 35.144532-.847657l21.097656-126.582031c3.222656-19.371093 19.816406-33.425781 39.457031-33.425781h76.886719v16h-76.886719c-11.785156 0-21.738281 8.433594-23.671875 20.054688l-20.6875 124.113281c11.988282.265625 23.550782.855469 34.277344 1.726562.152344-.152343.257812-.34375.410156-.496093-.050781-8.503907 3.222656-16.582032 9.300782-22.664063 6.082031-6.070313 14.113281-9.199219 22.65625-9.300781 5.976562-6.042969 14-9.433594 22.601562-9.433594s16.625 3.390625 22.601562 9.441406c8.183594.101563 16.574219 3.222656 22.664063 9.300782 6.078125 6.074218 9.351563 14.152343 9.300781 22.65625 6.042969 5.976562 9.433594 14 9.433594 22.601562s-3.390625 16.625-9.441406 22.601562c.050781 8.191407-3.046875 15.925782-8.703125 21.917969l26.144531 32.671875v19.871094c0 78.691406-29.152344 154.089844-82.078125 212.3125l-2.386719 2.625h-183.070312l-2.375-2.617188c-52.9375-58.222656-82.089844-133.621093-82.089844-212.3125v-19.871093l65.160156-81.445313c3.535156-6.371094 16.488282-13.867187 54.992188-17.523437l-50.726563-64.566407c-6.210937 3.960938-13.53125 6.335938-21.425781 6.335938h-.808594c-3.710937 18.230469-19.878906 32-39.191406 32h-24v-136h144v24c0 22.054688-17.945312 40-40 40zm-1.167969 120c10 2.753906 28.855469 5.742188 56.046875 7.160156l-10.734375-13.664062c-21.480469 1.566406-36.679687 4.128906-45.3125 6.503906zm-13.59375 11.257812-56.980469 71.230469c1.285157 16.472657 14.949219 29.511719 31.742188 29.511719 10.105469 0 19.433594-4.734375 25.585938-13l6.414062-8.609375 6.414062 8.609375c6.152344 8.265625 15.480469 13 25.585938 13s19.433594-4.734375 25.585938-13l6.414062-8.609375 6.414062 8.609375c6.152344 8.265625 15.480469 13 25.585938 13s19.433594-4.734375 25.585938-13l6.414062-8.609375 6.414062 8.609375c6.152344 8.265625 15.480469 13 25.585938 13s19.433594-4.734375 25.585938-13l6.414062-8.609375 6.414062 8.609375c6.152344 8.265625 15.480469 13 25.585938 13 16.792969 0 30.457031-13.039062 31.753906-29.511719l-23.640625-29.542969c-3.082031.941407-6.257812 1.574219-9.511719 1.613282-5.976562 6.050781-14 9.441406-22.601562 9.441406s-16.625-3.390625-22.601562-9.441406c-8.460938-.023438-16.574219-3.222656-22.65625-9.300782-6.078126-6.074218-9.351563-14.152343-9.300782-22.65625-.152344-.152343-.257812-.335937-.410156-.496093-15.09375 1.222656-31.894531 1.894531-49.03125 1.894531-61.753906 0-90.191406-6.039062-102.761719-12.742188zm262.074219 105.046876c-8.417969 7.261718-19.34375 11.695312-31.3125 11.695312-12.007812 0-23.265625-4.414062-32-12.359375-8.734375 7.945313-19.992188 12.359375-32 12.359375s-23.265625-4.414062-32-12.359375c-8.734375 7.945313-19.992188 12.359375-32 12.359375s-23.265625-4.414062-32-12.359375c-8.734375 7.945313-19.992188 12.359375-32 12.359375s-23.265625-4.414062-32-12.359375c-8.734375 7.945313-19.992188 12.359375-32 12.359375-11.96875 0-22.894531-4.433594-31.3125-11.695312 4.25 66.511718 30.390625 129.597656 74.878906 179.695312h168.867188c44.488281-50.097656 70.621094-113.183594 74.878906-179.695312zm-103.3125-116.304688c0 5.03125 2.367188 9.6875 6.488281 12.769531l3.816407 2.847657-.679688 4.703124c-.738281 5.105469.878906 10.0625 4.4375 13.617188 3.554688 3.558594 8.523438 5.183594 13.625 4.4375l4.703125-.679688 2.847656 3.816407c6.160157 8.242187 19.378907 8.242187 25.53125 0l2.847657-3.816407 4.703124.679688c5.105469.761719 10.0625-.878906 13.625-4.4375 3.558594-3.5625 5.175782-8.523438 4.4375-13.625l-.679687-4.703125 3.816406-2.847656c4.113281-3.074219 6.480469-7.730469 6.480469-12.761719s-2.367188-9.6875-6.488281-12.769531l-3.816407-2.847657.679688-4.703124c.738281-5.105469-.878906-10.0625-4.4375-13.617188-3.554688-3.558594-8.511719-5.175781-13.625-4.4375l-4.703125.679688-2.847656-3.816407c-6.160157-8.242187-19.378907-8.242187-25.53125 0l-2.847657 3.816407-4.703124-.679688c-5.078126-.714844-10.0625.878906-13.617188 4.4375-3.558594 3.5625-5.175781 8.523438-4.4375 13.625l.679688 4.703125-3.816407 2.847656c-4.121093 3.074219-6.488281 7.730469-6.488281 12.761719zm-43.910156-7.878906-2.632813 15.78125c10.808594-.148438 21.367188-.550782 31.277344-1.207032-.460937-2.175781-.734375-4.40625-.734375-6.695312s.273438-4.519531.734375-6.695312c-9.109375-.609376-18.75-1-28.644531-1.183594zm-36.402344.351562 12.089844 15.382813c1.78125.03125 3.621094.046875 5.460937.066406l2.648438-15.875c-7.152344.042969-13.855469.191406-20.199219.425781zm-39.6875-160.472656h-88.625l58.664062 32h5.960938c13.230469 0 24-10.769531 24-24zm-80.175781 81.71875-31.824219-58.34375v80.625h8c12.648438 0 22.929688-9.855469 23.824219-22.28125zm40.175781-33.71875v-3.246094l-59.953125-32.707031 32.707031 59.953125h3.246094c13.230469 0 24-10.769531 24-24zm0 0" fill="url(#a)"/></svg>